#!OML:ASF H:\Male1\Project 1\Capture day 1\Session 1\Male1.ASF
:FULLY-SPECIFIED
:DEGREES
785
root 15.7037 15.3027 -8.68795 9.14171 -113.369 -8.94331
lowerback 8.77536 -2.01869 0.466812
upperback 5.48618 -2.91713 0.984994
thorax 0.795918 -1.57919 0.980907
lowerneck 0.410166 10.0662 12.2223
upperneck -13.3299 12.2563 -15.6863
head -2.15308 6.06675 -6.83843
rclavicle 3.4191e-014 -1.82882e-014
rhumerus 4.11769 13.2592 -87.9696
rradius 74.2847
rwrist -51.9368
rhand -30.3119 3.81597
rfingers 7.12502
rthumb -3.6187 -26.1331
lclavicle 3.4191e-014 -1.82882e-014
lhumerus 8.64317 -35.4227 95.1805
lradius 76.89
lwrist 3.64148
lhand -35.8186 14.1856
lfingers 7.12502
lthumb -8.93479 43.9764
rfemur -15.4337 9.52645 10.8702
rtibia 35.0719
rfoot -22.3366 -22.8426
rtoes -28.8618
lfemur -1.28168 -2.79026 -15.2559
ltibia 26.7089
lfoot -31.4806 27.6981
ltoes 12.372
786
root 15.7049 15.2989 -8.78037 10.1491 -113.058 -9.8254
lowerback 8.84049 -2.07165 -0.0738264
upperback 5.48571 -3.0259 1.11609
thorax 0.795896 -1.64932 1.42907
lowerneck 0.656186 10.4624 12.3174
upperneck -13.3499 12.7775 -16.3792
head -2.06173 6.36254 -7.05386
rclavicle 3.93594e-014 -1.66979e-014
rhumerus 1.87648 14.4554 -87.8033
rradius 73.5315
rwrist -51.4042
rhand -30.3997 5.21548
rfingers 7.12502
rthumb -3.70345 -24.7321
lclavicle 3.93594e-014 -1.66979e-014
lhumerus 4.77991 -34.8732 97.1465
lradius 77.773
lwrist 8.01088
lhand -37.7423 10.621
lfingers 7.12502
lthumb -10.7907 40.3239
rfemur -15.529 9.05128 10.8852
rtibia 35.3435
rfoot -22.8634 -22.5415
rtoes -28.0389
lfemur -2.13159 -1.98334 -15.9236
ltibia 27.4788
lfoot -30.7562 27.2714
ltoes 10.5013
787
root 15.7041 15.2939 -8.87073 8.19446 -113.011 -7.76561
lowerback 9.30058 -1.92681 0.119624
upperback 5.41225 -2.82235 1.69152
thorax 0.484344 -1.55506 1.92048
lowerneck 1.23659 10.6173 12.2976
upperneck -13.4575 12.9916 -17.0494
head -2.10085 6.52533 -7.28492
rclavicle -3.18055e-014 -1.27222e-014
rhumerus -0.608936 16.0444 -87.392
rradius 73.2845
rwrist -50.9002
rhand -30.5847 7.3043
rfingers 7.12502
rthumb -3.88209 -22.6401
lclavicle -3.18055e-014 -1.27222e-014
lhumerus 0.706173 -33.8764 99.3266
lradius 78.9552
lwrist 12.5333
lhand -36.0047 8.63459
lfingers 7.12502
lthumb -9.11434 38.4177
rfemur -15.4802 9.44468 12.2295
rtibia 35.6077
rfoot -23.2091 -22.7842
rtoes -27.4659
lfemur -2.58029 -1.11458 -15.352
ltibia 28.1535
lfoot -30.2144 26.7239
ltoes 8.75703
788
root 15.7013 15.2881 -8.9478 8.23676 -112.848 -7.78702
lowerback 9.31223 -1.78364 0.139336
upperback 5.55006 -2.64105 1.64797
thorax 0.612219 -1.46773 1.84613
lowerneck 1.62951 10.7088 12.6426
upperneck -13.8766 13.0863 -17.6425
head -2.19656 6.59894 -7.5592
rclavicle -3.598e-014 -5.56597e-015
rhumerus -2.71882 17.2275 -87.4864
rradius 73.4547
rwrist -50.0354
rhand -31.4787 9.31907
rfingers 7.12502
rthumb -4.74534 -20.6078
lclavicle -3.598e-014 -5.56597e-015
lhumerus -2.67475 -33.4003 100.358
lradius 80.3408
lwrist 17.6364
lhand -33.9913 7.03549
lfingers 7.12502
lthumb -7.17121 36.894
rfemur -15.4611 9.23164 12.5706
rtibia 35.8799
rfoot -23.4405 -22.6905
rtoes -27.1333
lfemur -3.10196 -0.558329 -15.6918
ltibia 28.7404
lfoot -29.6751 26.2792
ltoes 6.89934
789
root 15.7045 15.2847 -9.02198 8.54013 -112.671 -8.06057
lowerback 9.45851 -1.63676 0.216682
upperback 5.60691 -2.44019 1.36662
thorax 0.568789 -1.36094 1.49987
lowerneck 1.82767 10.6466 12.9584
upperneck -14.0303 13.0153 -17.8252
head -2.24633 6.56872 -7.68817
rclavicle -2.8625e-014 -2.38542e-015
rhumerus -4.45428 18.1237 -88.245
rradius 73.2861
rwrist -48.6657
rhand -28.3785 10.4632
rfingers 7.12502
rthumb -1.75147 -19.5093
lclavicle -2.8625e-014 -2.38542e-015
lhumerus -5.62381 -32.8878 100.662
lradius 81.676
lwrist 23.1491
lhand -31.8048 6.12675
lfingers 7.12502
lthumb -5.06029 36.0463
rfemur -15.4413 9.09081 12.7872
rtibia 36.0454
rfoot -23.6074 -22.6971
rtoes -27.0412
lfemur -3.69686 -0.0694595 -16.0689
ltibia 29.3347
lfoot -29.2478 25.748
ltoes 5.93188
790
root 15.7011 15.2867 -9.08069 9.08618 -112.024 -8.48228
lowerback 9.41646 -1.62867 0.520653
upperback 5.67501 -2.40647 1.06093
thorax 0.635896 -1.33123 1.00844
lowerneck 1.86989 10.7569 13.5531
upperneck -14.3265 13.1486 -18.1899
head -2.24358 6.62515 -7.90197
rclavicle 1.64991e-014 7.95139e-016
rhumerus -5.57705 19.1795 -89.0571
rradius 72.5848
rwrist -47.2266
rhand -27.7035 11.1578
rfingers 7.12502
rthumb -1.09955 -18.8191
lclavicle 1.64991e-014 7.95139e-016
lhumerus -8.68721 -31.5305 101.082
lradius 83.2356
lwrist 28.0639
lhand -29.8101 5.9
lfingers 7.12502
lthumb -3.13411 35.8567
rfemur -15.3746 8.7088 12.9464
rtibia 36.1591
rfoot -23.9485 -22.7764
rtoes -26.785
lfemur -4.47922 -0.111812 -16.4357
ltibia 29.8449
lfoot -28.9615 25.2446
ltoes 5.85964
791
root 15.6953 15.2864 -9.13803 8.53177 -111.508 -7.87253
lowerback 9.47828 -1.53361 1.11296
upperback 5.76423 -2.23905 0.836888
thorax 0.662395 -1.2307 0.431897
lowerneck 1.9021 10.6323 14.1558
upperneck -14.3375 12.993 -18.5377
head -2.20271 6.54035 -8.114
rclavicle 7.35503e-015 -1.90833e-014
rhumerus -6.67575 20.6403 -89.8193
rradius 72.1489
rwrist -46.3257
rhand -27.6775 11.8218
rfingers 7.12502
rthumb -1.0744 -18.1552
lclavicle 7.35503e-015 -1.90833e-014
lhumerus -11.2902 -30.4277 101.019
lradius 84.1792
lwrist 33.2257
lhand -27.7048 5.92315
lfingers 7.12502
lthumb -1.10082 35.9001
rfemur -15.0947 8.86979 13.566
rtibia 36.1535
rfoot -24.4305 -23.1835
rtoes -26.257
lfemur -5.04015 -0.0119068 -16.3344
ltibia 30.3461
lfoot -28.9179 24.7868
ltoes 5.81574
792
root 15.6906 15.289 -9.19225 7.79257 -110.854 -7.02847
lowerback 9.47307 -1.43007 1.76921
upperback 5.83226 -2.05371 0.609365
thorax 0.707483 -1.11773 -0.18752
lowerneck 1.97557 10.3511 14.1369
upperneck -14.4729 12.645 -18.0795
head -2.3535 6.35207 -8.00135
rclavicle -6.2816e-014 -7.95139e-016
rhumerus -7.73714 22.3319 -90.6158
rradius 72.0118
rwrist -45.9647
rhand -27.4752 12.882
rfingers 7.12502
rthumb -0.879007 -17.096
lclavicle -6.2816e-014 -7.95139e-016
lhumerus -13.6483 -28.9863 100.629
lradius 84.9623
lwrist 36.7855
lhand -25.8026 6.60531
lfingers 7.12502
lthumb 0.736445 36.5838
rfemur -14.759 9.19759 14.2895
rtibia 36.0267
rfoot -25.0338 -23.8712
rtoes -25.5127
lfemur -5.65956 0.0591035 -16.0543
ltibia 30.8099
lfoot -28.7072 24.4546
ltoes 5.38633
793
root 15.686 15.2946 -9.23924 8.20377 -109.946 -7.31751
lowerback 9.23299 -1.32975 2.11969
upperback 5.90652 -1.89767 0.240465
thorax 0.896446 -1.02048 -0.785805
lowerneck 1.96303 10.0726 14.3947
upperneck -14.5746 12.3028 -17.743
head -2.4488 6.1549 -7.96028
rclavicle -4.87022e-014 1.51076e-014
rhumerus -8.63484 24.0473 -91.4791
rradius 71.8769
rwrist -45.7475
rhand -27.1155 14.1098
rfingers 7.12502
rthumb -0.531629 -15.8693
lclavicle -4.87022e-014 1.51076e-014
lhumerus -15.883 -27.6894 99.9791
lradius 85.9071
lwrist 39.4698
lhand -24.0858 7.61065
lfingers 7.12502
lthumb 2.39445 37.577
rfemur -14.4079 9.18718 14.5299
rtibia 35.7548
rfoot -25.5834 -24.4525
rtoes -24.6855
lfemur -6.44143 -0.110586 -16.1145
ltibia 31.2549
lfoot -28.3981 24.1968
ltoes 4.98324
794
root 15.6845 15.3105 -9.28899 8.9566 -109.091 -7.42219
lowerback 8.52458 -1.10027 2.01626
upperback 5.7708 -1.59245 0.158198
thorax 1.15131 -0.857119 -0.852769
lowerneck 1.99087 9.86254 14.6201
upperneck -14.6933 12.0317 -17.6514
head -2.52494 6.00699 -7.98907
rclavicle 1.03368e-014 1.43125e-014
rhumerus -9.56209 25.869 -92.0974
rradius 71.7931
rwrist -45.317
rhand -26.1171 14.7718
rfingers 7.12502
rthumb 0.432676 -15.2075
lclavicle 1.03368e-014 1.43125e-014
lhumerus -17.8458 -26.6244 99.3631
lradius 86.814
lwrist 41.2089
lhand -22.3755 8.78831
lfingers 7.12502
lthumb 4.04614 38.7296
rfemur -14.6237 9.18118 14.7747
rtibia 35.3943
rfoot -25.9472 -25.0087
rtoes -23.8752
lfemur -7.7433 0.0938049 -15.9193
ltibia 31.6642
lfoot -28.0933 23.8165
ltoes 4.65866
795
root 15.6787 15.3405 -9.31677 9.77957 -106.782 -7.2637
lowerback 7.62271 -1.35505 2.20854
upperback 5.45095 -1.90206 0.433598
thorax 1.30898 -0.996181 -0.672696
lowerneck 1.82391 9.40921 14.2592
upperneck -14.336 11.4251 -17.3841
head -2.53499 5.71039 -7.84991
rclavicle -2.18663e-015 -1.31198e-014
rhumerus -10.3839 28.0233 -92.3699
rradius 71.7194
rwrist -44.5099
rhand -25.434 15.5356
rfingers 7.12502
rthumb 1.09245 -14.4413
lclavicle -2.18663e-015 -1.31198e-014
lhumerus -19.5513 -25.6577 98.9438
lradius 87.7364
lwrist 42.9083
lhand -20.674 10.0072
lfingers 7.12502
lthumb 5.68907 39.9108
rfemur -14.8541 8.49598 15.1966
rtibia 34.9558
rfoot -27.0802 -25.7907
rtoes -21.7267
lfemur -9.71351 -1.40748 -15.5382
ltibia 32.0514
lfoot -27.9513 23.8976
ltoes 4.85177
796
root 15.6986 15.3804 -9.33763 11.6054 -104.378 -7.63391
lowerback 6.57809 -1.62758 2.33945
upperback 4.93938 -2.23382 0.597119
thorax 1.34706 -1.14433 -0.579448
lowerneck 1.39077 8.93903 13.9541
upperneck -13.7892 10.7905 -17.0608
head -2.44718 5.38456 -7.67696
rclavicle -4.37326e-014 4.77083e-015
rhumerus -11.0101 30.2556 -92.8661
rradius 71.6415
rwrist -43.4199
rhand -25.4993 16.7502
rfingers 7.12502
rthumb 1.02931 -13.2271
lclavicle -4.37326e-014 4.77083e-015
lhumerus -20.9942 -24.9963 98.123
lradius 88.7558
lwrist 45.0837
lhand -19.0468 11.3669
lfingers 7.12502
lthumb 7.25997 41.2224
rfemur -15.7863 7.56809 15.3421
rtibia 34.485
rfoot -28.0834 -26.4899
rtoes -19.3364
lfemur -12.4366 -3.22903 -15.1979
ltibia 32.4615
lfoot -27.6773 24.2331
ltoes 5.19375
797
root 15.6979 15.3923 -9.35624 11.8393 -102.738 -7.48953
lowerback 6.23986 -1.60917 2.57252
upperback 4.83325 -2.19448 0.569521
thorax 1.41648 -1.11289 -0.748751
lowerneck 1.12358 8.59814 13.578
upperneck -13.7542 10.3145 -16.5645
head -2.52431 5.13339 -7.46401
rclavicle 7.55382e-015 -1.94809e-014
rhumerus -11.442 32.2804 -93.556
rradius 71.4868
rwrist -42.4299
rhand -25.4297 17.7819
rfingers 7.12502
rthumb 1.09655 -12.195
lclavicle 7.55382e-015 -1.94809e-014
lhumerus -22.2362 -24.6211 96.946
lradius 89.8318
lwrist 47.2263
lhand -17.4963 14.0636
lfingers 7.12502
lthumb 8.75644 43.8619
rfemur -15.62 7.02574 15.6869
rtibia 34.0549
rfoot -28.6972 -26.9808
rtoes -18.0078
lfemur -13.6559 -4.1784 -14.6818
ltibia 32.8268
lfoot -27.3831 24.2768
ltoes 4.62893
798
root 15.6981 15.3992 -9.36704 11.5621 -100.96 -6.87116
lowerback 6.02479 -1.59323 2.89516
upperback 4.6878 -2.151 0.570904
thorax 1.37605 -1.0795 -0.933544
lowerneck 0.777346 8.17708 13.2147
upperneck -13.5519 9.72984 -16.1662
head -2.54314 4.83133 -7.27461
rclavicle -1.78906e-015 -6.36111e-015
rhumerus -11.6691 34.1225 -94.1413
rradius 71.3147
rwrist -41.6957
rhand -25.1402 18.6478
rfingers 7.12502
rthumb 1.37619 -11.3275
lclavicle -1.78906e-015 -6.36111e-015
lhumerus -23.4414 -24.2318 95.7383
lradius 90.9695
lwrist 49.2719
lhand -15.9297 13.7623
lfingers 7.12502
lthumb 10.2679 43.4917
rfemur -15.4962 6.49146 16.1032
rtibia 33.7554
rfoot -29.114 -27.5679
rtoes -17.295
lfemur -14.829 -5.18494 -13.9316
ltibia 33.0619
lfoot -27 24.1809
ltoes 3.80404
799
root 15.6903 15.397 -9.37833 10.5473 -99.698 -6.11959
lowerback 6.24736 -1.38989 2.92747
upperback 4.79253 -1.87733 0.533781
thorax 1.36935 -0.942428 -0.999127
lowerneck 0.121569 7.70105 12.7283
upperneck -13.0235 9.06646 -15.7278
head -2.43051 4.48475 -7.02571
rclavicle 2.0773e-014 -1.15295e-014
rhumerus -11.6774 35.7862 -94.5758
rradius 71.3303
rwrist -40.8187
rhand -24.5787 19.3444
rfingers 7.12502
rthumb 1.91843 -10.6267
lclavicle 2.0773e-014 -1.15295e-014
lhumerus -24.4999 -23.9846 94.4511
lradius 92.0997
lwrist 50.2179
lhand -15.1448 13.3043
lfingers 7.12502
lthumb 11.0251 42.9947
rfemur -14.7412 6.15218 16.5122
rtibia 33.527
rfoot -29.3042 -27.912
rtoes -17.2196
lfemur -15.0515 -5.2886 -13.1906
ltibia 33.1699
lfoot -26.458 23.7233
ltoes 3.02546
